<svg width="233" height="100" viewBox="0 0 233 100" fill="none" xmlns="http://www.w3.org/2000/svg">
<path fill-rule="evenodd" clip-rule="evenodd" d="M0 10C0 4.47716 4.47715 0 10 0H190C195.523 0 200 4.47715 200 10V25.5212L225.44 11.246C228.796 9.36243 232.933 11.8189 232.886 15.6676L232.038 84.9444C231.991 88.7932 227.795 91.1476 224.485 89.1824L200 74.6432V90C200 95.5228 195.523 100 190 100H10C4.47716 100 0 95.5229 0 90V10ZM10 20C10 14.4772 14.4772 10 20 10H50C55.5228 10 60 14.4772 60 20V80C60 85.5229 55.5228 90 50 90H20C14.4772 90 10 85.5229 10 80V20Z" fill="#6C63FF"/>
<path d="M73.166 33.2969H77.3662L88.0801 59.958L98.7715 33.2969H102.994L89.6973 66H86.418L73.166 33.2969ZM71.7959 33.2969H75.502L76.1084 53.2422V66H71.7959V33.2969ZM100.636 33.2969H104.342V66H100.029V53.2422L100.636 33.2969ZM132.732 62.4736V66H115.415V62.4736H132.732ZM116.291 33.2969V66H111.956V33.2969H116.291ZM130.441 47.3574V50.8838H115.415V47.3574H130.441ZM132.508 33.2969V36.8457H115.415V33.2969H132.508ZM158.877 62.4736V66H141.56V62.4736H158.877ZM142.436 33.2969V66H138.101V33.2969H142.436ZM156.586 47.3574V50.8838H141.56V47.3574H156.586ZM158.652 33.2969V36.8457H141.56V33.2969H158.652ZM176.778 33.2969V66H172.511V33.2969H176.778ZM187.29 33.2969V36.8457H162.021V33.2969H187.29Z" fill="white"/>
<path d="M52.2412 71.4307V80H25.3979V71.4307H52.2412ZM28.9502 26.6797V80H17.9639V26.6797H28.9502Z" fill="#F70000"/>
</svg>
