<svg width="551" height="248" viewBox="0 0 551 248" fill="none" xmlns="http://www.w3.org/2000/svg">
<g clip-path="url(#clip0_1_2)">
<path d="M56.2312 191.766C56.752 190.073 57.2077 187.208 57.5983 183.172C58.1192 179.266 58.5098 175.294 58.7702 171.258C59.1608 166.57 59.4864 161.492 59.7468 156.023C60.1374 151.987 60.4629 146.909 60.7233 140.789C60.9838 134.669 61.1791 128.159 61.3093 121.258C61.4395 114.357 61.5046 107.391 61.5046 100.359C61.5046 93.1979 61.4395 86.5573 61.3093 80.4375C61.1791 74.3177 60.9187 69.0442 60.528 64.6172C60.2676 60.1901 59.877 57.1953 59.3562 55.6328C61.8301 54.2005 64.0437 53.1588 65.9968 52.5078C67.9499 51.8567 69.6426 51.401 71.0749 51.1406C72.6374 50.75 74.0697 50.6198 75.3718 50.75C76.4134 50.8802 77.4551 51.0755 78.4968 51.3359C79.4082 51.5963 80.2546 51.9869 81.0358 52.5078C81.8171 52.8984 82.403 53.4843 82.7937 54.2656C82.5332 62.4687 82.2077 70.7369 81.8171 79.0703C81.5567 87.2734 81.2312 94.8255 80.8405 101.727C80.3197 109.799 79.7989 117.547 79.278 124.969C78.8874 132.781 78.4968 139.552 78.1062 145.281C77.8457 150.88 77.5853 155.828 77.3249 160.125C77.0645 164.292 76.8692 168.068 76.739 171.453C76.6088 174.708 76.5437 177.964 76.5437 181.219C79.6687 180.568 83.3796 179.852 87.6765 179.07C91.9733 178.159 96.8562 177.247 102.325 176.336C107.533 175.555 111.895 175.359 115.411 175.75C118.926 176.01 121.726 176.792 123.809 178.094C125.893 179.266 127.325 180.763 128.106 182.586C128.887 184.539 129.213 186.687 129.083 189.031C128.822 191.635 128.627 193.654 128.497 195.086C128.367 196.518 128.301 197.625 128.301 198.406C126.869 197.495 124.916 196.844 122.442 196.453C119.968 196.062 117.494 195.737 115.02 195.477C112.156 195.216 109.161 195.151 106.036 195.281C102.65 195.411 98.9395 195.672 94.903 196.062C91.5176 196.323 87.5463 196.714 82.989 197.234C78.4317 197.755 73.6791 198.536 68.7312 199.578C65.2155 197.104 62.2858 195.151 59.9421 193.719C58.5098 192.937 57.2728 192.286 56.2312 191.766Z" fill="#4F2D69"/>
<path d="M276.667 198.602C272.761 198.471 270.092 197.234 268.659 194.891C267.227 192.677 266.381 189.552 266.12 185.516C265.86 181.479 265.99 176.727 266.511 171.258C267.032 165.659 267.292 159.604 267.292 153.094C267.422 140.203 267.878 128.484 268.659 117.937C269.571 107.26 269.831 96.9088 269.441 86.8828C269.441 86.1015 269.441 85.3854 269.441 84.7343C269.441 84.0833 269.376 83.4323 269.245 82.7812C268.594 84.9948 267.813 87.5338 266.902 90.3984C266.12 93.1328 265.144 96.1927 263.972 99.5781C261.628 106.87 259.284 114.357 256.941 122.039C254.727 129.721 252.514 137.208 250.3 144.5C248.217 151.661 246.199 158.367 244.245 164.617C242.422 170.737 240.795 175.88 239.363 180.047C237.93 184.214 236.498 187.273 235.066 189.227C233.764 191.31 232.396 192.742 230.964 193.523C229.662 194.305 228.295 194.63 226.863 194.5C225.561 194.37 224.258 194.24 222.956 194.109C222.436 189.682 221.459 184.474 220.027 178.484C218.594 172.495 217.097 166.766 215.534 161.297C213.712 154.917 211.693 148.406 209.48 141.766C206.485 130.307 203.36 119.825 200.105 110.32C196.85 100.815 194.311 93.0026 192.488 86.8828C191.706 93.5234 191.12 101.141 190.73 109.734C190.339 118.328 190.079 126.922 189.949 135.516C189.818 144.109 189.883 152.247 190.144 159.93C190.404 167.482 190.795 173.602 191.316 178.289C191.446 180.242 191.706 182.195 192.097 184.148C192.357 185.841 192.683 187.534 193.074 189.227C193.594 191.049 194.18 192.677 194.831 194.109C194.18 194.63 193.399 195.086 192.488 195.477C191.576 195.867 190.6 196.193 189.558 196.453C188.386 196.844 187.149 197.169 185.847 197.43C180.769 198.471 177.058 198.341 174.714 197.039C172.501 195.737 171.133 193.133 170.613 189.227C170.352 187.273 170.157 183.628 170.027 178.289C169.896 172.95 169.831 166.831 169.831 159.93C169.962 152.898 170.157 145.542 170.417 137.859C170.678 130.177 171.068 123.016 171.589 116.375C172.11 111.036 172.631 105.242 173.152 98.9922C173.672 93.5234 174.193 87.2083 174.714 80.0468C175.235 72.8854 175.821 65.138 176.472 56.8047C176.863 56.0234 177.514 55.3724 178.425 54.8515C179.337 54.2005 180.313 53.6797 181.355 53.289C182.527 52.7682 183.829 52.3776 185.261 52.1172C187.475 51.7265 189.428 51.401 191.12 51.1406C192.553 50.8802 193.855 50.6849 195.027 50.5547C196.329 50.4244 196.85 50.4244 196.589 50.5547C198.282 54.0703 199.584 57 200.495 59.3437C201.407 61.5573 202.318 64.2265 203.23 67.3515C204.271 70.4765 205.508 74.5781 206.941 79.6562C208.503 84.7343 210.717 91.8307 213.581 100.945C217.488 113.575 220.808 124.578 223.542 133.953C226.407 143.328 228.555 150.49 229.988 155.437C230.899 153.745 231.811 151.922 232.722 149.969C233.633 147.885 234.545 145.411 235.456 142.547C236.498 139.682 237.54 136.362 238.581 132.586C239.753 128.68 241.055 124.057 242.488 118.719C244.311 112.859 246.199 106.544 248.152 99.7734C249.714 94.0442 251.407 87.5338 253.23 80.2422C255.183 72.8203 257.006 65.138 258.699 57.1953C262.865 55.5026 266.251 54.2656 268.855 53.4843C271.459 52.5729 273.477 51.8567 274.909 51.3359C276.602 50.8151 277.839 50.4896 278.62 50.3593C279.402 50.4896 280.183 50.8802 280.964 51.5312C281.615 52.1823 282.396 53.0937 283.308 54.2656C284.219 55.4375 285.196 57.1953 286.238 59.539C286.238 61.3619 286.238 64.2916 286.238 68.3281C286.238 72.3646 286.238 77.0521 286.238 82.3906C286.238 87.5989 286.172 93.263 286.042 99.3828C285.912 105.503 285.782 111.687 285.652 117.937C285.652 124.057 285.587 130.047 285.456 135.906C285.456 141.766 285.391 146.974 285.261 151.531C285.001 158.432 284.936 164.292 285.066 169.109C285.326 173.927 285.717 177.964 286.238 181.219C286.889 184.344 287.67 186.883 288.581 188.836C289.623 190.789 290.86 192.352 292.292 193.523C291.902 193.784 291.12 194.174 289.949 194.695C288.907 195.346 287.605 195.932 286.042 196.453C284.48 197.104 282.852 197.625 281.159 198.016C279.467 198.406 277.969 198.602 276.667 198.602ZM330.574 184.148C321.459 184.148 314.428 181.089 309.48 174.969C304.532 168.849 302.058 160.841 302.058 150.945C302.058 144.044 303.034 137.599 304.988 131.609C307.071 125.49 309.805 120.216 313.191 115.789C316.576 111.362 320.482 107.911 324.909 105.437C329.467 102.833 334.219 101.531 339.167 101.531C343.985 101.531 348.087 103.289 351.472 106.805C354.857 110.19 356.55 115.073 356.55 121.453C356.55 125.62 355.639 129.786 353.816 133.953C351.993 137.99 349.584 141.635 346.589 144.891C343.725 148.016 340.534 150.555 337.019 152.508C333.503 154.461 330.118 155.437 326.863 155.437C324.779 155.437 323.021 155.177 321.589 154.656C320.157 154.135 318.855 153.354 317.683 152.312C318.074 159.734 319.701 164.943 322.566 167.937C325.43 170.802 329.141 172.234 333.699 172.234C336.824 172.234 339.558 171.583 341.902 170.281C344.376 168.979 346.459 167.482 348.152 165.789C349.844 164.096 351.212 162.404 352.253 160.711C353.295 158.888 354.011 157.521 354.402 156.609C354.792 155.828 355.443 155.437 356.355 155.437C357.396 155.437 357.917 156.219 357.917 157.781C357.917 159.214 357.396 161.427 356.355 164.422C355.443 167.286 353.881 170.216 351.667 173.211C349.454 176.075 346.589 178.615 343.074 180.828C339.688 183.042 335.521 184.148 330.574 184.148ZM339.558 109.93C338.777 109.93 337.279 110.776 335.066 112.469C332.982 114.031 330.704 116.375 328.23 119.5C325.886 122.625 323.672 126.401 321.589 130.828C319.636 135.125 318.399 140.008 317.878 145.477C325.691 143.654 331.876 140.789 336.433 136.883C340.99 132.977 343.269 127.247 343.269 119.695C343.269 115.919 342.813 113.38 341.902 112.078C340.99 110.646 340.209 109.93 339.558 109.93ZM395.417 184.148C386.303 184.148 379.271 181.089 374.324 174.969C369.376 168.849 366.902 160.841 366.902 150.945C366.902 144.044 367.878 137.599 369.831 131.609C371.915 125.49 374.649 120.216 378.034 115.789C381.42 111.362 385.326 107.911 389.753 105.437C394.311 102.833 399.063 101.531 404.011 101.531C408.829 101.531 412.93 103.289 416.316 106.805C419.701 110.19 421.394 115.073 421.394 121.453C421.394 125.62 420.482 129.786 418.659 133.953C416.837 137.99 414.428 141.635 411.433 144.891C408.568 148.016 405.378 150.555 401.863 152.508C398.347 154.461 394.962 155.437 391.706 155.437C389.623 155.437 387.865 155.177 386.433 154.656C385.001 154.135 383.699 153.354 382.527 152.312C382.917 159.734 384.545 164.943 387.409 167.937C390.274 170.802 393.985 172.234 398.542 172.234C401.667 172.234 404.402 171.583 406.745 170.281C409.219 168.979 411.303 167.482 412.995 165.789C414.688 164.096 416.055 162.404 417.097 160.711C418.139 158.888 418.855 157.521 419.245 156.609C419.636 155.828 420.287 155.437 421.199 155.437C422.24 155.437 422.761 156.219 422.761 157.781C422.761 159.214 422.24 161.427 421.199 164.422C420.287 167.286 418.725 170.216 416.511 173.211C414.297 176.075 411.433 178.615 407.917 180.828C404.532 183.042 400.365 184.148 395.417 184.148ZM404.402 109.93C403.62 109.93 402.123 110.776 399.909 112.469C397.826 114.031 395.547 116.375 393.074 119.5C390.73 122.625 388.516 126.401 386.433 130.828C384.48 135.125 383.243 140.008 382.722 145.477C390.534 143.654 396.719 140.789 401.277 136.883C405.834 132.977 408.113 127.247 408.113 119.695C408.113 115.919 407.657 113.38 406.745 112.078C405.834 110.646 405.053 109.93 404.402 109.93ZM507.527 95.0859C506.094 94.8255 504.141 94.5651 501.667 94.3047C499.324 94.0442 496.915 93.8489 494.441 93.7187C491.576 93.5885 488.516 93.5234 485.261 93.5234C482.006 93.263 477.904 93.263 472.956 93.5234C468.139 93.6536 463.061 93.7187 457.722 93.7187C457.592 97.1041 457.331 100.555 456.941 104.07C456.68 107.586 456.42 111.036 456.159 114.422C455.508 120.672 454.922 127.052 454.402 133.562C454.011 140.073 453.816 146.258 453.816 152.117C453.816 157.977 454.141 163.315 454.792 168.133C455.574 172.82 456.941 176.531 458.894 179.266C457.331 180.437 455.639 181.349 453.816 182C451.993 182.521 450.365 182.911 448.933 183.172C447.24 183.562 445.547 183.758 443.855 183.758C442.292 183.758 440.99 183.237 439.949 182.195C438.907 181.154 438.321 179.331 438.191 176.727C437.93 172.299 437.865 167.872 437.995 163.445C438.256 158.888 438.516 154.135 438.777 149.187C439.167 144.24 439.558 138.966 439.949 133.367C440.339 127.638 440.73 121.388 441.12 114.617C441.511 107.586 441.706 100.75 441.706 94.1093C436.758 94.2396 432.592 94.3047 429.206 94.3047C425.821 94.3047 423.933 94.2396 423.542 94.1093C423.152 93.8489 422.696 93.263 422.175 92.3515C421.654 91.5703 421.003 90.3984 420.222 88.8359C419.311 87.2734 418.204 85.0599 416.902 82.1953C419.376 82.1953 422.11 82.1953 425.105 82.1953C427.969 82.1953 430.639 82.1302 433.113 82C435.977 81.8698 438.842 81.7396 441.706 81.6093C441.576 79.526 441.511 77.3125 441.511 74.9687C441.381 73.1458 441.316 71.1276 441.316 68.914C441.316 66.5703 441.251 64.4218 441.12 62.4687C441.12 61.6875 442.032 60.776 443.855 59.7343C445.808 58.5625 447.891 57.5208 450.105 56.6093C452.318 55.6979 454.337 55.1119 456.159 54.8515C458.113 54.5911 459.089 55.0468 459.089 56.2187C459.089 57.3906 459.024 60.2552 458.894 64.8125C458.894 69.2396 458.764 74.6432 458.503 81.0234C459.805 81.0234 460.782 80.9583 461.433 80.8281C468.334 80.5677 473.868 80.3073 478.034 80.0468C482.331 79.6562 485.847 79.5911 488.581 79.8515C491.316 80.1119 493.725 80.763 495.808 81.8047C497.891 82.8463 500.235 84.539 502.839 86.8828C503.751 87.664 504.532 88.5104 505.183 89.4218C505.834 90.2031 506.355 91.1146 506.745 92.1562C507.266 93.0677 507.527 94.0442 507.527 95.0859Z" fill="#4F2D69"/>
<path d="M139.825 42.3088C141.908 42.3088 143.666 42.7646 145.098 43.676C146.661 44.4573 147.898 45.4989 148.809 46.801C149.851 47.9729 150.567 49.3401 150.958 50.9026C151.479 52.3349 151.739 53.7021 151.739 55.0042C151.739 58.2594 151.023 61.3193 149.591 64.1838C148.288 67.0484 146.661 69.5875 144.708 71.801C142.885 74.0146 141.062 75.7724 139.239 77.0745C137.416 78.3765 136.114 79.0276 135.333 79.0276C134.942 79.0276 134.551 78.8323 134.161 78.4417C133.9 78.1812 133.575 77.7255 133.184 77.0745C132.924 76.5536 132.663 75.7724 132.403 74.7307C133.705 73.038 135.072 71.2151 136.505 69.262C138.067 67.3088 138.979 64.9 139.239 62.0354C138.458 62.2958 137.546 62.4911 136.505 62.6213C135.593 62.7515 134.617 62.8167 133.575 62.8167C130.971 62.8167 128.887 62.1656 127.325 60.8635C125.893 59.5614 125.176 57.9989 125.176 56.176C125.176 54.8739 125.502 53.4417 126.153 51.8792C126.804 50.1864 127.716 48.689 128.887 47.387C130.189 45.9547 131.752 44.7828 133.575 43.8713C135.398 42.8297 137.481 42.3088 139.825 42.3088Z" fill="#4F2D69"/>
</g>
<defs>
<clipPath id="clip0_1_2">
<rect width="551" height="248" fill="white"/>
</clipPath>
</defs>
</svg>
