<svg width="191" height="153" viewBox="0 0 191 153" fill="none" xmlns="http://www.w3.org/2000/svg">
<rect x="15" y="24" width="50" height="50" rx="10" fill="#4A33DD"/>
<rect x="70" y="79" width="50" height="50" rx="10" fill="#D4D828"/>
<rect x="15" y="79" width="50" height="50" rx="10" fill="#57DE28"/>
<rect x="70" y="24" width="50" height="50" rx="10" fill="#C94848"/>
<path fill-rule="evenodd" clip-rule="evenodd" d="M140.607 88.3071C137.79 92.0716 133.973 94.1841 129.994 94.1797L130.002 86.8918C135.979 84.1683 140 79.0789 140 73.25C140 67.4307 135.992 62.3485 130.032 59.6217L130.038 54C134.016 54.0043 137.829 56.1251 140.638 59.8958C143.447 63.6664 145.022 68.7781 145.016 74.1062C145.01 79.4344 143.425 84.5426 140.607 88.3071Z" fill="black"/>
<path fill-rule="evenodd" clip-rule="evenodd" d="M170.601 101.576C167.787 109.54 163.974 114.009 160 114L160.008 98.5825C165.978 92.821 169.995 82.0544 169.995 69.7233C169.995 57.4126 165.991 46.6613 160.038 40.8927L160.044 29C164.018 29.0092 167.827 33.4956 170.632 41.4724C173.438 49.4492 175.011 60.2629 175.006 71.5346C175 82.8063 173.416 93.6127 170.601 101.576Z" fill="black"/>
<path fill-rule="evenodd" clip-rule="evenodd" d="M155.591 96.2073C152.774 102.485 148.956 106.007 144.978 106L144.986 93.8474C150.963 89.3059 154.984 80.8193 154.984 71.0995C154.984 61.3958 150.976 52.9212 145.016 48.3742L145.022 39C149 39.0072 152.813 42.5436 155.622 48.8312C158.431 55.1188 160.006 63.6425 160 72.5273C159.994 81.412 158.408 89.93 155.591 96.2073Z" fill="black"/>
</svg>
